<svg xmlns="http://www.w3.org/2000/svg" viewBox="0 0 1000 570" font-family="Inter, Segoe UI, Arial, sans-serif" role="img" aria-label="¿Qué puede hacer un agente de IA?"><rect width="1000" height="570" fill="#ffffff"/><g stroke="#a4d8bf" stroke-width="2" stroke-dasharray="2 7" stroke-linecap="round"><line x1="500" y1="285" x2="188" y2="187"/><line x1="500" y1="285" x2="500" y2="90"/><line x1="500" y1="285" x2="812" y2="187"/><line x1="500" y1="285" x2="162" y2="352"/><line x1="500" y1="285" x2="838" y2="352"/><line x1="500" y1="285" x2="269" y2="434"/><line x1="500" y1="285" x2="500" y2="480"/><line x1="500" y1="285" x2="731" y2="434"/></g><rect x="370" y="230" width="260" height="110" rx="20" fill="#e7f4ee"/><text x="500" y="277" text-anchor="middle" font-size="24" font-weight="800" fill="#0c7d68">¿Qué puede hacer</text><text x="500" y="307" text-anchor="middle" font-size="24" font-weight="800" fill="#0c7d68">un agente de IA?</text><g>
    <rect x="80.4" y="159.5" width="215.6" height="56" rx="14" fill="#ffffff" stroke="#e2e8f0"/>
    <circle cx="110.4" cy="187.49999999999997" r="17" fill="#e7f4ee"/>
    <g transform="translate(100.4,177.49999999999997) scale(0.83)" fill="none" stroke="#0d9e80" stroke-width="1.8" stroke-linecap="round" stroke-linejoin="round"><path d="M5 3l6 16 2-7 7-2z"/></g>
    <text x="136.4" y="192.49999999999997" font-family="Inter, Segoe UI, Arial, sans-serif" font-size="16" font-weight="600" fill="#0c2a47">Automatiza clics</text>
  </g><g>
    <rect x="409.4" y="62.0" width="181.2" height="56" rx="14" fill="#ffffff" stroke="#e2e8f0"/>
    <circle cx="439.4" cy="90" r="17" fill="#e7f4ee"/>
    <g transform="translate(429.4,80) scale(0.83)" fill="none" stroke="#0d9e80" stroke-width="1.8" stroke-linecap="round" stroke-linejoin="round"><rect x="4" y="3" width="16" height="18" rx="2"/><path d="M8 8h6M8 12h6M8 16h4"/></g>
    <text x="465.4" y="95" font-family="Inter, Segoe UI, Arial, sans-serif" font-size="16" font-weight="600" fill="#0c2a47">Revisa datos</text>
  </g><g>
    <rect x="708.3" y="159.5" width="207" height="56" rx="14" fill="#ffffff" stroke="#e2e8f0"/>
    <circle cx="738.3" cy="187.49999999999991" r="17" fill="#e7f4ee"/>
    <g transform="translate(728.3,177.49999999999991) scale(0.83)" fill="none" stroke="#0d9e80" stroke-width="1.8" stroke-linecap="round" stroke-linejoin="round"><path d="M7 5h10l-6 7 6 7H7"/></g>
    <text x="764.3" y="192.49999999999991" font-family="Inter, Segoe UI, Arial, sans-serif" font-size="16" font-weight="600" fill="#0c2a47">Calcula valores</text>
  </g><g>
    <rect x="66.8" y="323.7" width="189.8" height="56" rx="14" fill="#ffffff" stroke="#e2e8f0"/>
    <circle cx="96.8" cy="351.69392794850546" r="17" fill="#e7f4ee"/>
    <g transform="translate(86.8,341.69392794850546) scale(0.83)" fill="none" stroke="#0d9e80" stroke-width="1.8" stroke-linecap="round" stroke-linejoin="round"><circle cx="6" cy="12" r="2"/><circle cx="18" cy="6" r="2"/><circle cx="18" cy="18" r="2"/><path d="M8 11l8-4M8 13l8 4"/></g>
    <text x="122.8" y="356.69392794850546" font-family="Inter, Segoe UI, Arial, sans-serif" font-size="16" font-weight="600" fill="#0c2a47">Integra datos</text>
  </g><g>
    <rect x="704.7" y="323.7" width="267.2" height="56" rx="14" fill="#ffffff" stroke="#e2e8f0"/>
    <circle cx="734.7" cy="351.6939279485054" r="17" fill="#e7f4ee"/>
    <g transform="translate(724.7,341.6939279485054) scale(0.83)" fill="none" stroke="#0d9e80" stroke-width="1.8" stroke-linecap="round" stroke-linejoin="round"><path d="M12 3l7 3v5c0 4-3 7-7 8-4-1-7-4-7-8V6z"/><path d="M9 12l2 2 4-4"/></g>
    <text x="760.7" y="356.6939279485054" font-family="Inter, Segoe UI, Arial, sans-serif" font-size="16" font-weight="600" fill="#0c2a47">Mantiene datos limpios</text>
  </g><g>
    <rect x="147.9" y="406.4" width="241.4" height="56" rx="14" fill="#ffffff" stroke="#e2e8f0"/>
    <circle cx="177.9" cy="434.37866640820073" r="17" fill="#e7f4ee"/>
    <g transform="translate(167.9,424.37866640820073) scale(0.83)" fill="none" stroke="#0d9e80" stroke-width="1.8" stroke-linecap="round" stroke-linejoin="round"><path d="M12 4l9 16H3z"/><path d="M12 10v4M12 17v.5"/></g>
    <text x="203.9" y="439.37866640820073" font-family="Inter, Segoe UI, Arial, sans-serif" font-size="16" font-weight="600" fill="#0c2a47">Detecta excepciones</text>
  </g><g>
    <rect x="366.4" y="452.0" width="267.2" height="56" rx="14" fill="#ffffff" stroke="#e2e8f0"/>
    <circle cx="396.4" cy="480" r="17" fill="#e7f4ee"/>
    <g transform="translate(386.4,470) scale(0.83)" fill="none" stroke="#0d9e80" stroke-width="1.8" stroke-linecap="round" stroke-linejoin="round"><path d="M6 9a6 6 0 1112 0c0 5 2 6 2 6H4s2-1 2-6z"/><path d="M10 20a2 2 0 004 0"/></g>
    <text x="422.4" y="485" font-family="Inter, Segoe UI, Arial, sans-serif" font-size="16" font-weight="600" fill="#0c2a47">Envía alertas y tareas</text>
  </g><g>
    <rect x="619.3" y="406.4" width="224.2" height="56" rx="14" fill="#ffffff" stroke="#e2e8f0"/>
    <circle cx="649.3" cy="434.37866640820073" r="17" fill="#e7f4ee"/>
    <g transform="translate(639.3,424.37866640820073) scale(0.83)" fill="none" stroke="#0d9e80" stroke-width="1.8" stroke-linecap="round" stroke-linejoin="round"><rect x="3" y="4" width="18" height="12" rx="2"/><path d="M9 20h6M12 16v4"/></g>
    <text x="675.3" y="439.37866640820073" font-family="Inter, Segoe UI, Arial, sans-serif" font-size="16" font-weight="600" fill="#0c2a47">Sigue el progreso</text>
  </g></svg>
