<svg xmlns="http://www.w3.org/2000/svg" viewBox="0 0 760 480" width="760" height="480" font-family="system-ui, -apple-system, Segoe UI, Roboto, sans-serif" role="img" aria-label="Fitoware · Duplicat A4 (2 en 1)">
  <defs><filter id="fsh2" x="-5%" y="-5%" width="110%" height="115%"><feDropShadow dx="0" dy="8" stdDeviation="14" flood-color="#0e6354" flood-opacity="0.18"/></filter></defs>
  <rect width="760" height="480" fill="#ecfdf5"/>
  <rect x="40" y="28" width="680" height="424" rx="16" fill="#ffffff" stroke="#d8e0e6" filter="url(#fsh2)"/>
  <path d="M40 44 a16 16 0 0 1 16 -16 h648 a16 16 0 0 1 16 16 v26 h-680 z" fill="#0d9e80"/>
  <circle cx="64" cy="44" r="5" fill="#ffffff" opacity="0.85"/>
  <circle cx="82" cy="44" r="5" fill="#ffffff" opacity="0.6"/>
  <circle cx="100" cy="44" r="5" fill="#ffffff" opacity="0.45"/>
  <text x="380" y="49" text-anchor="middle" fill="#ffffff" font-size="14" font-weight="600">Fitoware · Duplicat A4 (2 en 1)</text><text x="60" y="98" fill="#0f172a" font-size="14" font-weight="700">Vista prèvia d'impressió</text><rect x="560" y="82" width="140" height="34" rx="9" fill="#0d9e80"/><text x="630" y="104" text-anchor="middle" fill="#ffffff" font-size="12" font-weight="700">Imprimir A4</text><rect x="250" y="120" width="260" height="316" rx="6" fill="#ffffff" stroke="#cbd5e1" filter="url(#fsh2)"/><text x="380" y="140" text-anchor="middle" fill="#94a3b8" font-size="10" font-weight="700" letter-spacing="2">A4 · 210 × 297 mm</text><rect x="274" y="156" width="212" height="118" rx="8" fill="#ffffff" stroke="#0d9e80"/><path d="M274 166 a10 10 0 0 1 10 -10 h192 a10 10 0 0 1 10 10 v14 h-212 z" fill="#0d9e80"/><text x="286" y="171" fill="#ffffff" font-size="9" font-weight="700">PASSAPORT FITOSANITARI UE</text><text x="286" y="196" fill="#0c2a47" font-size="10"><tspan font-weight="800">A ·</tspan> Rosa gallica</text><text x="286" y="212" fill="#0c2a47" font-size="10"><tspan font-weight="800">B ·</tspan> ES-08 09</text><text x="286" y="228" fill="#0c2a47" font-size="10"><tspan font-weight="800">C ·</tspan> L-2026-0345</text><text x="286" y="244" fill="#0c2a47" font-size="10"><tspan font-weight="800">D ·</tspan> ES</text><rect x="430" y="190" width="44" height="44" fill="#ffffff"/><g fill="#0c2a47"><rect x="430.0" y="190.0" width="6.3" height="6.3"/><rect x="436.3" y="190.0" width="6.3" height="6.3"/><rect x="442.6" y="190.0" width="6.3" height="6.3"/><rect x="455.1" y="190.0" width="6.3" height="6.3"/><rect x="461.4" y="190.0" width="6.3" height="6.3"/><rect x="467.7" y="190.0" width="6.3" height="6.3"/><rect x="430.0" y="196.3" width="6.3" height="6.3"/><rect x="442.6" y="196.3" width="6.3" height="6.3"/><rect x="467.7" y="196.3" width="6.3" height="6.3"/><rect x="430.0" y="202.6" width="6.3" height="6.3"/><rect x="436.3" y="202.6" width="6.3" height="6.3"/><rect x="442.6" y="202.6" width="6.3" height="6.3"/><rect x="455.1" y="202.6" width="6.3" height="6.3"/><rect x="467.7" y="202.6" width="6.3" height="6.3"/><rect x="448.9" y="208.9" width="6.3" height="6.3"/><rect x="461.4" y="208.9" width="6.3" height="6.3"/><rect x="430.0" y="215.1" width="6.3" height="6.3"/><rect x="442.6" y="215.1" width="6.3" height="6.3"/><rect x="455.1" y="215.1" width="6.3" height="6.3"/><rect x="461.4" y="215.1" width="6.3" height="6.3"/><rect x="467.7" y="215.1" width="6.3" height="6.3"/><rect x="430.0" y="221.4" width="6.3" height="6.3"/><rect x="436.3" y="221.4" width="6.3" height="6.3"/><rect x="448.9" y="221.4" width="6.3" height="6.3"/><rect x="467.7" y="221.4" width="6.3" height="6.3"/><rect x="430.0" y="227.7" width="6.3" height="6.3"/><rect x="442.6" y="227.7" width="6.3" height="6.3"/><rect x="448.9" y="227.7" width="6.3" height="6.3"/><rect x="455.1" y="227.7" width="6.3" height="6.3"/><rect x="467.7" y="227.7" width="6.3" height="6.3"/></g><rect x="274" y="302" width="212" height="118" rx="8" fill="#ffffff" stroke="#0d9e80"/><path d="M274 312 a10 10 0 0 1 10 -10 h192 a10 10 0 0 1 10 10 v14 h-212 z" fill="#0d9e80"/><text x="286" y="317" fill="#ffffff" font-size="9" font-weight="700">PASSAPORT FITOSANITARI UE</text><text x="286" y="342" fill="#0c2a47" font-size="10"><tspan font-weight="800">A ·</tspan> Rosa gallica</text><text x="286" y="358" fill="#0c2a47" font-size="10"><tspan font-weight="800">B ·</tspan> ES-08 09</text><text x="286" y="374" fill="#0c2a47" font-size="10"><tspan font-weight="800">C ·</tspan> L-2026-0345</text><text x="286" y="390" fill="#0c2a47" font-size="10"><tspan font-weight="800">D ·</tspan> ES</text><rect x="430" y="336" width="44" height="44" fill="#ffffff"/><g fill="#0c2a47"><rect x="430.0" y="336.0" width="6.3" height="6.3"/><rect x="436.3" y="336.0" width="6.3" height="6.3"/><rect x="442.6" y="336.0" width="6.3" height="6.3"/><rect x="455.1" y="336.0" width="6.3" height="6.3"/><rect x="461.4" y="336.0" width="6.3" height="6.3"/><rect x="467.7" y="336.0" width="6.3" height="6.3"/><rect x="430.0" y="342.3" width="6.3" height="6.3"/><rect x="442.6" y="342.3" width="6.3" height="6.3"/><rect x="467.7" y="342.3" width="6.3" height="6.3"/><rect x="430.0" y="348.6" width="6.3" height="6.3"/><rect x="436.3" y="348.6" width="6.3" height="6.3"/><rect x="442.6" y="348.6" width="6.3" height="6.3"/><rect x="455.1" y="348.6" width="6.3" height="6.3"/><rect x="467.7" y="348.6" width="6.3" height="6.3"/><rect x="448.9" y="354.9" width="6.3" height="6.3"/><rect x="461.4" y="354.9" width="6.3" height="6.3"/><rect x="430.0" y="361.1" width="6.3" height="6.3"/><rect x="442.6" y="361.1" width="6.3" height="6.3"/><rect x="455.1" y="361.1" width="6.3" height="6.3"/><rect x="461.4" y="361.1" width="6.3" height="6.3"/><rect x="467.7" y="361.1" width="6.3" height="6.3"/><rect x="430.0" y="367.4" width="6.3" height="6.3"/><rect x="436.3" y="367.4" width="6.3" height="6.3"/><rect x="448.9" y="367.4" width="6.3" height="6.3"/><rect x="467.7" y="367.4" width="6.3" height="6.3"/><rect x="430.0" y="373.7" width="6.3" height="6.3"/><rect x="442.6" y="373.7" width="6.3" height="6.3"/><rect x="448.9" y="373.7" width="6.3" height="6.3"/><rect x="455.1" y="373.7" width="6.3" height="6.3"/><rect x="467.7" y="373.7" width="6.3" height="6.3"/></g><line x1="262" y1="288" x2="498" y2="288" stroke="#cbd5e1" stroke-width="1" stroke-dasharray="5 5"/><text x="516" y="220" fill="#0c7d68" font-size="11" font-weight="700" transform="rotate(90 516 220)">2 per full</text><circle cx="70" cy="424" r="3" fill="#0d9e80"/><text x="84" y="428" fill="#64748b" font-size="11">Dos passaports per full A4, per arxivar i lliurar.</text></svg>
