<svg xmlns="http://www.w3.org/2000/svg" viewBox="0 0 760 480" width="760" height="480" font-family="system-ui, -apple-system, Segoe UI, Roboto, sans-serif" role="img" aria-label="Fitoware · Labels & EAN-13">
  <defs><filter id="fsh2" x="-5%" y="-5%" width="110%" height="115%"><feDropShadow dx="0" dy="8" stdDeviation="14" flood-color="#0e6354" flood-opacity="0.18"/></filter></defs>
  <rect width="760" height="480" fill="#ecfdf5"/>
  <rect x="40" y="28" width="680" height="424" rx="16" fill="#ffffff" stroke="#d8e0e6" filter="url(#fsh2)"/>
  <path d="M40 44 a16 16 0 0 1 16 -16 h648 a16 16 0 0 1 16 16 v26 h-680 z" fill="#0d9e80"/>
  <circle cx="64" cy="44" r="5" fill="#ffffff" opacity="0.85"/>
  <circle cx="82" cy="44" r="5" fill="#ffffff" opacity="0.6"/>
  <circle cx="100" cy="44" r="5" fill="#ffffff" opacity="0.45"/>
  <text x="380" y="49" text-anchor="middle" fill="#ffffff" font-size="14" font-weight="600">Fitoware · Labels & EAN-13</text><text x="60" y="98" fill="#0f172a" font-size="14" font-weight="700">Label design</text><text x="60" y="128" fill="#64748b" font-size="11">Item</text><rect x="60" y="134" width="300" height="30" rx="8" fill="#ffffff" stroke="#cbd5e1"/><text x="74" y="154" fill="#0f172a" font-size="12" font-weight="600">Rosa gallica · maceta 5L</text><text x="60" y="180" fill="#64748b" font-size="11">EAN-13 code</text><rect x="60" y="186" width="300" height="30" rx="8" fill="#ffffff" stroke="#cbd5e1"/><text x="74" y="206" fill="#0f172a" font-size="12" font-weight="600">8 412345 678905</text><text x="60" y="232" fill="#64748b" font-size="11">Batch</text><rect x="60" y="238" width="300" height="30" rx="8" fill="#ffffff" stroke="#cbd5e1"/><text x="74" y="258" fill="#0f172a" font-size="12" font-weight="600">L-2026-0345</text><text x="60" y="284" fill="#64748b" font-size="11">Quantity</text><rect x="60" y="290" width="300" height="30" rx="8" fill="#ffffff" stroke="#cbd5e1"/><text x="74" y="310" fill="#0f172a" font-size="12" font-weight="600">250</text><rect x="60" y="338" width="300" height="40" rx="9" fill="#0d9e80"/><path d="M78 352 h4 v-6 h14 v6 h4 v12 h-4 v-6 h-14 v6 h-4 z" fill="#ffffff" opacity="0.95"/><text x="220" y="363" text-anchor="middle" fill="#ffffff" font-size="12.5" font-weight="700">Print labels</text><rect x="416" y="120" width="284" height="256" rx="12" fill="#f8fafc" stroke="#e2e8f0"/><text x="558" y="146" text-anchor="middle" fill="#94a3b8" font-size="10.5" font-weight="700" letter-spacing="1.5">PREVIEW</text><rect x="440" y="158" width="236" height="196" rx="8" fill="#ffffff" stroke="#cbd5e1"/><text x="456" y="184" fill="#0c2a47" font-size="12.5" font-weight="700" font-style="italic">Rosa gallica</text><text x="456" y="202" fill="#64748b" font-size="10">L-2026-0345 · Origin ES</text><rect x="596" y="170" width="62" height="62" fill="#ffffff"/><g fill="#0c2a47"><rect x="596.0" y="170.0" width="8.9" height="8.9"/><rect x="604.9" y="170.0" width="8.9" height="8.9"/><rect x="613.7" y="170.0" width="8.9" height="8.9"/><rect x="631.4" y="170.0" width="8.9" height="8.9"/><rect x="640.3" y="170.0" width="8.9" height="8.9"/><rect x="649.1" y="170.0" width="8.9" height="8.9"/><rect x="596.0" y="178.9" width="8.9" height="8.9"/><rect x="613.7" y="178.9" width="8.9" height="8.9"/><rect x="649.1" y="178.9" width="8.9" height="8.9"/><rect x="596.0" y="187.7" width="8.9" height="8.9"/><rect x="604.9" y="187.7" width="8.9" height="8.9"/><rect x="613.7" y="187.7" width="8.9" height="8.9"/><rect x="631.4" y="187.7" width="8.9" height="8.9"/><rect x="649.1" y="187.7" width="8.9" height="8.9"/><rect x="622.6" y="196.6" width="8.9" height="8.9"/><rect x="640.3" y="196.6" width="8.9" height="8.9"/><rect x="596.0" y="205.4" width="8.9" height="8.9"/><rect x="613.7" y="205.4" width="8.9" height="8.9"/><rect x="631.4" y="205.4" width="8.9" height="8.9"/><rect x="640.3" y="205.4" width="8.9" height="8.9"/><rect x="649.1" y="205.4" width="8.9" height="8.9"/><rect x="596.0" y="214.3" width="8.9" height="8.9"/><rect x="604.9" y="214.3" width="8.9" height="8.9"/><rect x="622.6" y="214.3" width="8.9" height="8.9"/><rect x="649.1" y="214.3" width="8.9" height="8.9"/><rect x="596.0" y="223.1" width="8.9" height="8.9"/><rect x="613.7" y="223.1" width="8.9" height="8.9"/><rect x="622.6" y="223.1" width="8.9" height="8.9"/><rect x="631.4" y="223.1" width="8.9" height="8.9"/><rect x="649.1" y="223.1" width="8.9" height="8.9"/></g><g fill="#0f172a"><rect x="456.0" y="232" width="2" height="46"/><rect x="461.8" y="232" width="3" height="46"/><rect x="468.6" y="232" width="2" height="46"/><rect x="474.4" y="232" width="1" height="46"/><rect x="481.2" y="232" width="2" height="46"/><rect x="487.0" y="232" width="2" height="46"/><rect x="495.8" y="232" width="1" height="46"/><rect x="501.6" y="232" width="1" height="46"/><rect x="508.4" y="232" width="1" height="46"/><rect x="513.2" y="232" width="2" height="46"/><rect x="521.0" y="232" width="1" height="46"/><rect x="526.8" y="232" width="1" height="46"/><rect x="534.6" y="232" width="2" height="46"/><rect x="540.4" y="232" width="3" height="46"/><rect x="547.2" y="232" width="2" height="46"/><rect x="553.0" y="232" width="1" height="46"/><rect x="558.8" y="232" width="3" height="46"/><rect x="565.6" y="232" width="2" height="46"/></g><text x="456" y="296" fill="#0f172a" font-size="12" font-family="monospace" letter-spacing="2">8 412345 678905</text><rect x="456" y="312" width="220" height="1.4" fill="#e2e8f0"/><text x="456" y="336" fill="#0c7d68" font-size="10.5" font-weight="700">EAN-13 + QR</text><circle cx="70" cy="424" r="3" fill="#0d9e80"/><text x="84" y="428" fill="#64748b" font-size="11">Generates the EAN-13 and traceability QR automatically.</text></svg>
