<svg viewBox="0 0 1000 700" xmlns="http://www.w3.org/2000/svg" role="img" aria-label="Operations ecosystem of a nursery managed with Fitoware">
<defs>
    <linearGradient id="sky" x1="0" y1="0" x2="0" y2="1"><stop offset="0" stop-color="#f2fbff"/><stop offset="1" stop-color="#ffffff"/></linearGradient>
    <linearGradient id="glass" x1="0" y1="0" x2="0" y2="1"><stop offset="0" stop-color="#cfeaf2" stop-opacity="0.62"/><stop offset="1" stop-color="#afdcd0" stop-opacity="0.42"/></linearGradient>
    <linearGradient id="bed" x1="0" y1="0" x2="1" y2="1"><stop offset="0" stop-color="#3f9d54"/><stop offset="1" stop-color="#1f6b39"/></linearGradient>
    <filter id="lbl" x="-20%" y="-40%" width="140%" height="180%"><feDropShadow dx="0" dy="4" stdDeviation="5" flood-color="#0c2a47" flood-opacity="0.18"/></filter>
  </defs>
<rect width="1000" height="700" fill="url(#sky)"/>
<circle cx="180" cy="150" r="150" fill="#a3e635" opacity="0.08"/>
<circle cx="820" cy="140" r="150" fill="#16bd95" opacity="0.08"/>
<polygon points="500,208 1028,480 632,684 104,412" fill="#eef2f4" />
<polygon points="104,412 632,684 632,693.6 104,421.6" fill="#d5dde2" />
<polygon points="1028,480 632,684 632,693.6 1028,489.6" fill="#c9d3d9" />
<polygon points="104,412 632,684 575.9,712.9 47.9,440.9" fill="#8b96a0" />
<polygon points="47.9,440.9 575.9,712.9 575.9,722.5 47.9,450.5" fill="#6f7a84" />
<g><line x1="95.8" y1="436.6" x2="118.8" y2="448.5" stroke="#e8edf0" stroke-width="2.4" stroke-linecap="round"/><line x1="141.9" y1="460.4" x2="165.1" y2="472.4" stroke="#e8edf0" stroke-width="2.4" stroke-linecap="round"/><line x1="188.2" y1="484.3" x2="211.3" y2="496.1" stroke="#e8edf0" stroke-width="2.4" stroke-linecap="round"/><line x1="234.3" y1="508" x2="257.5" y2="520" stroke="#e8edf0" stroke-width="2.4" stroke-linecap="round"/><line x1="280.5" y1="531.8" x2="303.6" y2="543.8" stroke="#e8edf0" stroke-width="2.4" stroke-linecap="round"/><line x1="326.8" y1="555.6" x2="349.8" y2="567.5" stroke="#e8edf0" stroke-width="2.4" stroke-linecap="round"/><line x1="373" y1="579.5" x2="396" y2="591.3" stroke="#e8edf0" stroke-width="2.4" stroke-linecap="round"/><line x1="419.2" y1="603.3" x2="442.3" y2="615.1" stroke="#e8edf0" stroke-width="2.4" stroke-linecap="round"/><line x1="465.4" y1="627" x2="488.4" y2="639" stroke="#e8edf0" stroke-width="2.4" stroke-linecap="round"/><line x1="511.6" y1="650.9" x2="534.6" y2="662.8" stroke="#e8edf0" stroke-width="2.4" stroke-linecap="round"/><line x1="557.8" y1="674.7" x2="580.9" y2="686.5" stroke="#e8edf0" stroke-width="2.4" stroke-linecap="round"/></g>
<g><ellipse cx="122.2" cy="410.3" rx="10" ry="8" fill="#3f9d54"/><ellipse cx="122.2" cy="407.3" rx="7" ry="6" fill="#57b56a"/><ellipse cx="151.9" cy="425.6" rx="10" ry="8" fill="#3f9d54"/><ellipse cx="151.9" cy="422.6" rx="7" ry="6" fill="#57b56a"/><ellipse cx="181.6" cy="440.9" rx="10" ry="8" fill="#3f9d54"/><ellipse cx="181.6" cy="437.9" rx="7" ry="6" fill="#57b56a"/><ellipse cx="211.3" cy="456.1" rx="10" ry="8" fill="#3f9d54"/><ellipse cx="211.3" cy="453.1" rx="7" ry="6" fill="#57b56a"/><ellipse cx="240.9" cy="471.4" rx="10" ry="8" fill="#3f9d54"/><ellipse cx="240.9" cy="468.4" rx="7" ry="6" fill="#57b56a"/><ellipse cx="270.7" cy="486.8" rx="10" ry="8" fill="#3f9d54"/><ellipse cx="270.7" cy="483.8" rx="7" ry="6" fill="#57b56a"/><ellipse cx="300.4" cy="502" rx="10" ry="8" fill="#3f9d54"/><ellipse cx="300.4" cy="499" rx="7" ry="6" fill="#57b56a"/><ellipse cx="330.1" cy="517.4" rx="10" ry="8" fill="#3f9d54"/><ellipse cx="330.1" cy="514.4" rx="7" ry="6" fill="#57b56a"/><ellipse cx="359.8" cy="532.7" rx="10" ry="8" fill="#3f9d54"/><ellipse cx="359.8" cy="529.7" rx="7" ry="6" fill="#57b56a"/><ellipse cx="389.5" cy="548" rx="10" ry="8" fill="#3f9d54"/><ellipse cx="389.5" cy="545" rx="7" ry="6" fill="#57b56a"/><ellipse cx="419.2" cy="563.3" rx="10" ry="8" fill="#3f9d54"/><ellipse cx="419.2" cy="560.3" rx="7" ry="6" fill="#57b56a"/><ellipse cx="448.9" cy="578.5" rx="10" ry="8" fill="#3f9d54"/><ellipse cx="448.9" cy="575.5" rx="7" ry="6" fill="#57b56a"/><ellipse cx="478.6" cy="593.9" rx="10" ry="8" fill="#3f9d54"/><ellipse cx="478.6" cy="590.9" rx="7" ry="6" fill="#57b56a"/><ellipse cx="508.3" cy="609.2" rx="10" ry="8" fill="#3f9d54"/><ellipse cx="508.3" cy="606.2" rx="7" ry="6" fill="#57b56a"/><ellipse cx="538" cy="624.5" rx="10" ry="8" fill="#3f9d54"/><ellipse cx="538" cy="621.5" rx="7" ry="6" fill="#57b56a"/><ellipse cx="567.7" cy="639.8" rx="10" ry="8" fill="#3f9d54"/><ellipse cx="567.7" cy="636.8" rx="7" ry="6" fill="#57b56a"/><ellipse cx="597.4" cy="655.1" rx="10" ry="8" fill="#3f9d54"/><ellipse cx="597.4" cy="652.1" rx="7" ry="6" fill="#57b56a"/><ellipse cx="627.1" cy="670.4" rx="10" ry="8" fill="#3f9d54"/><ellipse cx="627.1" cy="667.4" rx="7" ry="6" fill="#57b56a"/></g>
<polygon points="625.4,490.2 803.6,582 632,670.4 453.8,578.6" fill="#e3ead0" /><line x1="620.4" y1="499.5" x2="785.5" y2="584.5" stroke="#6ea644" stroke-width="6" stroke-linecap="round"/><line x1="620.4" y1="499.5" x2="785.5" y2="584.5" stroke="#4f8f37" stroke-width="2.4" stroke-linecap="round"/><line x1="600" y1="510.1" x2="765" y2="595.1" stroke="#6ea644" stroke-width="6" stroke-linecap="round"/><line x1="600" y1="510.1" x2="765" y2="595.1" stroke="#4f8f37" stroke-width="2.4" stroke-linecap="round"/><line x1="579.5" y1="520.6" x2="744.5" y2="605.6" stroke="#6ea644" stroke-width="6" stroke-linecap="round"/><line x1="579.5" y1="520.6" x2="744.5" y2="605.6" stroke="#4f8f37" stroke-width="2.4" stroke-linecap="round"/><line x1="559.1" y1="531.2" x2="724.1" y2="616.2" stroke="#6ea644" stroke-width="6" stroke-linecap="round"/><line x1="559.1" y1="531.2" x2="724.1" y2="616.2" stroke="#4f8f37" stroke-width="2.4" stroke-linecap="round"/><line x1="538.6" y1="541.7" x2="703.6" y2="626.7" stroke="#6ea644" stroke-width="6" stroke-linecap="round"/><line x1="538.6" y1="541.7" x2="703.6" y2="626.7" stroke="#4f8f37" stroke-width="2.4" stroke-linecap="round"/><line x1="518.1" y1="552.3" x2="683.2" y2="637.3" stroke="#6ea644" stroke-width="6" stroke-linecap="round"/><line x1="518.1" y1="552.3" x2="683.2" y2="637.3" stroke="#4f8f37" stroke-width="2.4" stroke-linecap="round"/><line x1="497.7" y1="562.8" x2="662.7" y2="647.8" stroke="#6ea644" stroke-width="6" stroke-linecap="round"/><line x1="497.7" y1="562.8" x2="662.7" y2="647.8" stroke="#4f8f37" stroke-width="2.4" stroke-linecap="round"/><line x1="477.2" y1="573.3" x2="642.2" y2="658.3" stroke="#6ea644" stroke-width="6" stroke-linecap="round"/><line x1="477.2" y1="573.3" x2="642.2" y2="658.3" stroke="#4f8f37" stroke-width="2.4" stroke-linecap="round"/>
<g opacity="1"><polygon points="493.4,429 335,510.6 335,516.6 493.4,435" fill="#d2dbe0"/><polygon points="143.6,412 335,510.6 335,516.6 143.6,418" fill="#dfe6ea"/><polygon points="302,330.4 493.4,429 335,510.6 143.6,412" fill="#f8fafb"/></g>
<g opacity="1"><polygon points="232.7,396.8 217.8,404.4 217.8,411.1 232.7,403.5" fill="#1b232a"/><polygon points="194.8,392.5 217.8,404.4 217.8,411.1 194.8,399.3" fill="#232d35"/><polygon points="209.6,384.9 232.7,396.8 217.8,404.4 194.8,392.5" fill="#2f3b45"/></g><rect x="208.8" y="376.5" width="18" height="12" rx="1.5" fill="#16bd95"/><g transform="translate(196.4,410.3) scale(0.8)"><ellipse cx="0" cy="2" rx="7" ry="3" fill="#0c2a47" opacity="0.10"/><rect x="-4" y="-20" width="8" height="15" rx="3.5" fill="#0c7d68"/><circle cx="0" cy="-24" r="3.6" fill="#f0c9a8"/></g><g opacity="1"><polygon points="269,415.5 254.2,423.1 254.2,429.9 269,422.2" fill="#1b232a"/><polygon points="231.1,411.2 254.2,423.1 254.2,429.9 231.1,417.9" fill="#232d35"/><polygon points="245.9,403.6 269,415.5 254.2,423.1 231.1,411.2" fill="#2f3b45"/></g><rect x="245.2" y="395.2" width="18" height="12" rx="1.5" fill="#16bd95"/><g transform="translate(232.7,429.0) scale(0.8)"><ellipse cx="0" cy="2" rx="7" ry="3" fill="#0c2a47" opacity="0.10"/><rect x="-4" y="-20" width="8" height="15" rx="3.5" fill="#0c7d68"/><circle cx="0" cy="-24" r="3.6" fill="#f0c9a8"/></g><g opacity="1"><polygon points="206.3,410.4 191.4,418 191.4,424.8 206.3,417.1" fill="#1b232a"/><polygon points="168.4,406.1 191.4,418 191.4,424.8 168.4,412.9" fill="#232d35"/><polygon points="183.2,398.5 206.3,410.4 191.4,418 168.4,406.1" fill="#2f3b45"/></g><rect x="182.4" y="390.1" width="18" height="12" rx="1.5" fill="#16bd95"/><g transform="translate(170.0,423.9) scale(0.8)"><ellipse cx="0" cy="2" rx="7" ry="3" fill="#0c2a47" opacity="0.10"/><rect x="-4" y="-20" width="8" height="15" rx="3.5" fill="#0c7d68"/><circle cx="0" cy="-24" r="3.6" fill="#f0c9a8"/></g><g opacity="1"><polygon points="242.6,429.1 227.8,436.7 227.8,443.4 242.6,435.8" fill="#1b232a"/><polygon points="204.7,424.8 227.8,436.7 227.8,443.4 204.7,431.5" fill="#232d35"/><polygon points="219.5,417.2 242.6,429.1 227.8,436.7 204.7,424.8" fill="#2f3b45"/></g><rect x="218.8" y="408.8" width="18" height="12" rx="1.5" fill="#16bd95"/><g transform="translate(206.3,442.6) scale(0.8)"><ellipse cx="0" cy="2" rx="7" ry="3" fill="#0c2a47" opacity="0.10"/><rect x="-4" y="-20" width="8" height="15" rx="3.5" fill="#0c7d68"/><circle cx="0" cy="-24" r="3.6" fill="#f0c9a8"/></g>
<g opacity="1"><polygon points="361.4,448.5 344.9,457 344.9,464.7 361.4,456.2" fill="#b7c3ca"/><polygon points="285.5,426.4 344.9,457 344.9,464.7 285.5,434.1" fill="#c7d1d7"/><polygon points="302,417.9 361.4,448.5 344.9,457 285.5,426.4" fill="#e2e8ec"/></g>
<g opacity="1"><polygon points="325.1,467.2 308.6,475.7 308.6,483.4 325.1,474.9" fill="#1b232a"/><polygon points="249.2,445.1 308.6,475.7 308.6,483.4 249.2,452.8" fill="#232d35"/><polygon points="265.7,436.6 325.1,467.2 308.6,475.7 249.2,445.1" fill="#2f3b45"/></g>
<g opacity="1"><polygon points="420.8,413.6 397.7,425.5 397.7,437.5 420.8,425.6" fill="#9c7026"/><polygon points="374.6,413.6 397.7,425.5 397.7,437.5 374.6,425.6" fill="#b9862f"/><polygon points="397.7,401.7 420.8,413.6 397.7,425.5 374.6,413.6" fill="#d9a441"/></g><g opacity="1"><polygon points="443.9,425.5 420.8,437.4 420.8,449.4 443.9,437.5" fill="#9c7026"/><polygon points="397.7,425.5 420.8,437.4 420.8,449.4 397.7,437.5" fill="#b9862f"/><polygon points="420.8,413.6 443.9,425.5 420.8,437.4 397.7,425.5" fill="#d9a441"/></g><g opacity="1"><polygon points="405.9,433.1 382.9,445 382.9,457 405.9,445.1" fill="#9c7026"/><polygon points="359.8,433.1 382.9,445 382.9,457 359.8,445.1" fill="#b9862f"/><polygon points="382.8,421.3 405.9,433.1 382.9,445 359.8,433.1" fill="#d9a441"/></g>
<g opacity="1"><polygon points="366.4,407.1 340,420.8 340,431.6 366.4,417.9" fill="#0c7d68"/><polygon points="321.8,411.4 340,420.8 340,431.6 321.8,422.2" fill="#0d9e80"/><polygon points="348.2,397.8 366.4,407.1 340,420.8 321.8,411.4" fill="#16bd95"/></g><g opacity="1"><polygon points="359.8,397.1 348.2,403 348.2,411.4 359.8,405.4" fill="#081d33"/><polygon points="336.7,397.1 348.2,403 348.2,411.4 336.7,405.4" fill="#0c2a47"/><polygon points="348.2,391.1 359.8,397.1 348.2,403 336.7,397.1" fill="#0f3a5f"/></g><line x1="335" y1="415.4" x2="335" y2="381.4" stroke="#0c2a47" stroke-width="3"/>
<g transform="translate(302.0,408.6) scale(1)"><ellipse cx="0" cy="2" rx="7" ry="3" fill="#0c2a47" opacity="0.10"/><rect x="-4" y="-20" width="8" height="15" rx="3.5" fill="#0c7d68"/><circle cx="0" cy="-24" r="3.6" fill="#f0c9a8"/></g><g transform="translate(325.1,440.9) scale(1)"><ellipse cx="0" cy="2" rx="7" ry="3" fill="#0c2a47" opacity="0.10"/><rect x="-4" y="-20" width="8" height="15" rx="3.5" fill="#0c7d68"/><circle cx="0" cy="-24" r="3.6" fill="#f0c9a8"/></g>
<polygon points="682.2,314.8 985.8,471.2 949.8,489.7 646.2,333.3" fill="url(#bed)" /><line x1="679.5" y1="319.5" x2="976.5" y2="472.5" stroke="#2b7d43" stroke-width="4" stroke-linecap="round"/><line x1="679.5" y1="319.5" x2="976.5" y2="472.5" stroke="#57b56a" stroke-width="1.6" stroke-linecap="round"/><line x1="668.3" y1="325.3" x2="965.3" y2="478.3" stroke="#2b7d43" stroke-width="4" stroke-linecap="round"/><line x1="668.3" y1="325.3" x2="965.3" y2="478.3" stroke="#57b56a" stroke-width="1.6" stroke-linecap="round"/><line x1="657.1" y1="331.1" x2="954.1" y2="484.1" stroke="#2b7d43" stroke-width="4" stroke-linecap="round"/><line x1="657.1" y1="331.1" x2="954.1" y2="484.1" stroke="#57b56a" stroke-width="1.6" stroke-linecap="round"/><polygon points="634.3,339.4 937.9,495.8 901.9,514.3 598.3,357.9" fill="url(#bed)" /><line x1="631.7" y1="344.2" x2="928.7" y2="497.2" stroke="#2b7d43" stroke-width="4" stroke-linecap="round"/><line x1="631.7" y1="344.2" x2="928.7" y2="497.2" stroke="#57b56a" stroke-width="1.6" stroke-linecap="round"/><line x1="620.5" y1="349.9" x2="917.5" y2="503" stroke="#2b7d43" stroke-width="4" stroke-linecap="round"/><line x1="620.5" y1="349.9" x2="917.5" y2="503" stroke="#57b56a" stroke-width="1.6" stroke-linecap="round"/><line x1="609.2" y1="355.7" x2="906.2" y2="508.7" stroke="#2b7d43" stroke-width="4" stroke-linecap="round"/><line x1="609.2" y1="355.7" x2="906.2" y2="508.7" stroke="#57b56a" stroke-width="1.6" stroke-linecap="round"/><polygon points="586.5,364.1 890.1,520.5 854.1,539 550.5,382.6" fill="url(#bed)" /><line x1="583.8" y1="368.8" x2="880.8" y2="521.8" stroke="#2b7d43" stroke-width="4" stroke-linecap="round"/><line x1="583.8" y1="368.8" x2="880.8" y2="521.8" stroke="#57b56a" stroke-width="1.6" stroke-linecap="round"/><line x1="572.6" y1="374.6" x2="869.6" y2="527.6" stroke="#2b7d43" stroke-width="4" stroke-linecap="round"/><line x1="572.6" y1="374.6" x2="869.6" y2="527.6" stroke="#57b56a" stroke-width="1.6" stroke-linecap="round"/><line x1="561.4" y1="380.4" x2="858.4" y2="533.4" stroke="#2b7d43" stroke-width="4" stroke-linecap="round"/><line x1="561.4" y1="380.4" x2="858.4" y2="533.4" stroke="#57b56a" stroke-width="1.6" stroke-linecap="round"/><polygon points="538.6,388.7 842.2,545.1 806.2,563.6 502.6,407.2" fill="url(#bed)" /><line x1="536" y1="393.5" x2="833" y2="546.5" stroke="#2b7d43" stroke-width="4" stroke-linecap="round"/><line x1="536" y1="393.5" x2="833" y2="546.5" stroke="#57b56a" stroke-width="1.6" stroke-linecap="round"/><line x1="524.8" y1="399.3" x2="821.8" y2="552.3" stroke="#2b7d43" stroke-width="4" stroke-linecap="round"/><line x1="524.8" y1="399.3" x2="821.8" y2="552.3" stroke="#57b56a" stroke-width="1.6" stroke-linecap="round"/><line x1="513.5" y1="405" x2="810.5" y2="558" stroke="#2b7d43" stroke-width="4" stroke-linecap="round"/><line x1="513.5" y1="405" x2="810.5" y2="558" stroke="#57b56a" stroke-width="1.6" stroke-linecap="round"/>
<polygon points="1001.6,473.2 810.2,571.8 810.2,523.8 1001.6,425.2" fill="url(#glass)" stroke="#eaf6fb" stroke-width="1"/>
<polygon points="486.8,405.2 810.2,571.8 810.2,523.8 486.8,357.2" fill="url(#glass)" stroke="#eaf6fb" stroke-width="1"/>
<g stroke="#dbeef2" stroke-width="1.2"><line x1="486.8" y1="405.2" x2="486.8" y2="357.2"/><line x1="519.8" y1="422.2" x2="519.8" y2="374.2"/><line x1="552.8" y1="439.2" x2="552.8" y2="391.2"/><line x1="585.8" y1="456.2" x2="585.8" y2="408.2"/><line x1="618.8" y1="473.2" x2="618.8" y2="425.2"/><line x1="651.8" y1="490.2" x2="651.8" y2="442.2"/><line x1="684.8" y1="507.2" x2="684.8" y2="459.2"/><line x1="717.8" y1="524.2" x2="717.8" y2="476.2"/><line x1="750.8" y1="541.2" x2="750.8" y2="493.2"/><line x1="783.8" y1="558.2" x2="783.8" y2="510.2"/></g>
<polygon points="678.2,258.6 1001.6,425.2 977.7,415.9 654.3,249.3" fill="url(#glass)" stroke="#eaf6fb" stroke-width="1"/><polygon points="630.4,283.3 953.8,449.9 977.7,415.9 654.3,249.3" fill="#bfe0e6" opacity="0.5" stroke="#eaf6fb" stroke-width="1"/><polygon points="630.4,283.3 953.8,449.9 929.8,440.6 606.4,274" fill="url(#glass)" stroke="#eaf6fb" stroke-width="1"/><polygon points="582.5,307.9 905.9,474.5 929.8,440.6 606.4,274" fill="#bfe0e6" opacity="0.5" stroke="#eaf6fb" stroke-width="1"/><polygon points="582.5,307.9 905.9,474.5 882,465.2 558.6,298.6" fill="url(#glass)" stroke="#eaf6fb" stroke-width="1"/><polygon points="534.6,332.5 858.1,499.1 882,465.2 558.6,298.6" fill="#bfe0e6" opacity="0.5" stroke="#eaf6fb" stroke-width="1"/><polygon points="534.6,332.5 858.1,499.1 834.1,489.9 510.7,323.3" fill="url(#glass)" stroke="#eaf6fb" stroke-width="1"/><polygon points="486.8,357.2 810.2,523.8 834.1,489.9 510.7,323.3" fill="#bfe0e6" opacity="0.5" stroke="#eaf6fb" stroke-width="1"/>
<polygon points="678.2,258.6 630.4,283.3 654.3,249.3" fill="#dff0f4" opacity="0.55" stroke="#cfe6ec" stroke-width="1"/><line x1="654.3" y1="249.3" x2="678.2" y2="258.6" stroke="#dcecef" stroke-width="1.3"/><line x1="654.3" y1="249.3" x2="630.4" y2="283.3" stroke="#cfe2e6" stroke-width="1.3"/><line x1="690.6" y1="268" x2="714.5" y2="277.3" stroke="#dcecef" stroke-width="1.3"/><line x1="690.6" y1="268" x2="666.6" y2="301.9" stroke="#cfe2e6" stroke-width="1.3"/><line x1="726.9" y1="286.7" x2="750.8" y2="296" stroke="#dcecef" stroke-width="1.3"/><line x1="726.9" y1="286.7" x2="702.9" y2="320.6" stroke="#cfe2e6" stroke-width="1.3"/><line x1="763.2" y1="305.4" x2="787.1" y2="314.7" stroke="#dcecef" stroke-width="1.3"/><line x1="763.2" y1="305.4" x2="739.3" y2="339.4" stroke="#cfe2e6" stroke-width="1.3"/><line x1="799.5" y1="324.1" x2="823.4" y2="333.4" stroke="#dcecef" stroke-width="1.3"/><line x1="799.5" y1="324.1" x2="775.5" y2="358" stroke="#cfe2e6" stroke-width="1.3"/><line x1="835.8" y1="342.8" x2="859.7" y2="352.1" stroke="#dcecef" stroke-width="1.3"/><line x1="835.8" y1="342.8" x2="811.8" y2="376.8" stroke="#cfe2e6" stroke-width="1.3"/><line x1="872.1" y1="361.5" x2="896" y2="370.8" stroke="#dcecef" stroke-width="1.3"/><line x1="872.1" y1="361.5" x2="848.1" y2="395.4" stroke="#cfe2e6" stroke-width="1.3"/><line x1="908.4" y1="380.2" x2="932.3" y2="389.5" stroke="#dcecef" stroke-width="1.3"/><line x1="908.4" y1="380.2" x2="884.4" y2="414.1" stroke="#cfe2e6" stroke-width="1.3"/><line x1="944.7" y1="398.9" x2="968.6" y2="408.2" stroke="#dcecef" stroke-width="1.3"/><line x1="944.7" y1="398.9" x2="920.7" y2="432.8" stroke="#cfe2e6" stroke-width="1.3"/><polygon points="630.4,283.3 582.5,307.9 606.4,274" fill="#dff0f4" opacity="0.55" stroke="#cfe6ec" stroke-width="1"/><line x1="606.4" y1="274" x2="630.4" y2="283.3" stroke="#dcecef" stroke-width="1.3"/><line x1="606.4" y1="274" x2="582.5" y2="307.9" stroke="#cfe2e6" stroke-width="1.3"/><line x1="642.7" y1="292.7" x2="666.6" y2="301.9" stroke="#dcecef" stroke-width="1.3"/><line x1="642.7" y1="292.7" x2="618.8" y2="326.6" stroke="#cfe2e6" stroke-width="1.3"/><line x1="679" y1="311.4" x2="702.9" y2="320.6" stroke="#dcecef" stroke-width="1.3"/><line x1="679" y1="311.4" x2="655.1" y2="345.3" stroke="#cfe2e6" stroke-width="1.3"/><line x1="715.3" y1="330.1" x2="739.3" y2="339.4" stroke="#dcecef" stroke-width="1.3"/><line x1="715.3" y1="330.1" x2="691.4" y2="364" stroke="#cfe2e6" stroke-width="1.3"/><line x1="751.6" y1="348.8" x2="775.5" y2="358" stroke="#dcecef" stroke-width="1.3"/><line x1="751.6" y1="348.8" x2="727.7" y2="382.7" stroke="#cfe2e6" stroke-width="1.3"/><line x1="787.9" y1="367.5" x2="811.8" y2="376.8" stroke="#dcecef" stroke-width="1.3"/><line x1="787.9" y1="367.5" x2="764" y2="401.4" stroke="#cfe2e6" stroke-width="1.3"/><line x1="824.2" y1="386.2" x2="848.1" y2="395.4" stroke="#dcecef" stroke-width="1.3"/><line x1="824.2" y1="386.2" x2="800.3" y2="420.1" stroke="#cfe2e6" stroke-width="1.3"/><line x1="860.5" y1="404.9" x2="884.4" y2="414.1" stroke="#dcecef" stroke-width="1.3"/><line x1="860.5" y1="404.9" x2="836.6" y2="438.8" stroke="#cfe2e6" stroke-width="1.3"/><line x1="896.8" y1="423.6" x2="920.7" y2="432.8" stroke="#dcecef" stroke-width="1.3"/><line x1="896.8" y1="423.6" x2="872.9" y2="457.5" stroke="#cfe2e6" stroke-width="1.3"/><polygon points="582.5,307.9 534.6,332.5 558.6,298.6" fill="#dff0f4" opacity="0.55" stroke="#cfe6ec" stroke-width="1"/><line x1="558.6" y1="298.6" x2="582.5" y2="307.9" stroke="#dcecef" stroke-width="1.3"/><line x1="558.6" y1="298.6" x2="534.6" y2="332.5" stroke="#cfe2e6" stroke-width="1.3"/><line x1="594.9" y1="317.3" x2="618.8" y2="326.6" stroke="#dcecef" stroke-width="1.3"/><line x1="594.9" y1="317.3" x2="571" y2="351.3" stroke="#cfe2e6" stroke-width="1.3"/><line x1="631.2" y1="336" x2="655.1" y2="345.3" stroke="#dcecef" stroke-width="1.3"/><line x1="631.2" y1="336" x2="607.3" y2="369.9" stroke="#cfe2e6" stroke-width="1.3"/><line x1="667.5" y1="354.7" x2="691.4" y2="364" stroke="#dcecef" stroke-width="1.3"/><line x1="667.5" y1="354.7" x2="643.5" y2="388.6" stroke="#cfe2e6" stroke-width="1.3"/><line x1="703.8" y1="373.4" x2="727.7" y2="382.7" stroke="#dcecef" stroke-width="1.3"/><line x1="703.8" y1="373.4" x2="679.8" y2="407.3" stroke="#cfe2e6" stroke-width="1.3"/><line x1="740.1" y1="392.1" x2="764" y2="401.4" stroke="#dcecef" stroke-width="1.3"/><line x1="740.1" y1="392.1" x2="716.1" y2="426" stroke="#cfe2e6" stroke-width="1.3"/><line x1="776.4" y1="410.8" x2="800.3" y2="420.1" stroke="#dcecef" stroke-width="1.3"/><line x1="776.4" y1="410.8" x2="752.4" y2="444.7" stroke="#cfe2e6" stroke-width="1.3"/><line x1="812.7" y1="429.5" x2="836.6" y2="438.8" stroke="#dcecef" stroke-width="1.3"/><line x1="812.7" y1="429.5" x2="788.7" y2="463.4" stroke="#cfe2e6" stroke-width="1.3"/><line x1="849" y1="448.2" x2="872.9" y2="457.5" stroke="#dcecef" stroke-width="1.3"/><line x1="849" y1="448.2" x2="825" y2="482.1" stroke="#cfe2e6" stroke-width="1.3"/><polygon points="534.6,332.5 486.8,357.2 510.7,323.3" fill="#dff0f4" opacity="0.55" stroke="#cfe6ec" stroke-width="1"/><line x1="510.7" y1="323.3" x2="534.6" y2="332.5" stroke="#dcecef" stroke-width="1.3"/><line x1="510.7" y1="323.3" x2="486.8" y2="357.2" stroke="#cfe2e6" stroke-width="1.3"/><line x1="547" y1="342" x2="571" y2="351.3" stroke="#dcecef" stroke-width="1.3"/><line x1="547" y1="342" x2="523.1" y2="375.9" stroke="#cfe2e6" stroke-width="1.3"/><line x1="583.3" y1="360.7" x2="607.3" y2="369.9" stroke="#dcecef" stroke-width="1.3"/><line x1="583.3" y1="360.7" x2="559.4" y2="394.6" stroke="#cfe2e6" stroke-width="1.3"/><line x1="619.6" y1="379.4" x2="643.5" y2="388.6" stroke="#dcecef" stroke-width="1.3"/><line x1="619.6" y1="379.4" x2="595.7" y2="413.3" stroke="#cfe2e6" stroke-width="1.3"/><line x1="655.9" y1="398.1" x2="679.8" y2="407.3" stroke="#dcecef" stroke-width="1.3"/><line x1="655.9" y1="398.1" x2="632" y2="432" stroke="#cfe2e6" stroke-width="1.3"/><line x1="692.2" y1="416.8" x2="716.1" y2="426" stroke="#dcecef" stroke-width="1.3"/><line x1="692.2" y1="416.8" x2="668.3" y2="450.7" stroke="#cfe2e6" stroke-width="1.3"/><line x1="728.5" y1="435.5" x2="752.4" y2="444.7" stroke="#dcecef" stroke-width="1.3"/><line x1="728.5" y1="435.5" x2="704.6" y2="469.4" stroke="#cfe2e6" stroke-width="1.3"/><line x1="764.8" y1="454.2" x2="788.7" y2="463.4" stroke="#dcecef" stroke-width="1.3"/><line x1="764.8" y1="454.2" x2="740.9" y2="488.1" stroke="#cfe2e6" stroke-width="1.3"/><line x1="801.1" y1="472.9" x2="825" y2="482.1" stroke="#dcecef" stroke-width="1.3"/><line x1="801.1" y1="472.9" x2="777.2" y2="506.8" stroke="#cfe2e6" stroke-width="1.3"/>
<g stroke="#8fd3ff" stroke-width="1.6" opacity="0.7" stroke-linecap="round">
      <line x1="718.6" y1="353.4" x2="714.6" y2="379.4"/>
      <line x1="718.6" y1="353.4" x2="723.6" y2="377.4"/>
      <line x1="728.6" y1="350.4" x2="726.6" y2="375.4"/>
    </g>
<g opacity="1"><polygon points="509.9,607.9 480.2,623.2 480.2,636.4 509.9,621.1" fill="#bcc7cd"/><polygon points="443.9,604.5 480.2,623.2 480.2,636.4 443.9,617.7" fill="#cdd6db"/><polygon points="473.6,589.2 509.9,607.9 480.2,623.2 443.9,604.5" fill="#eef2f4"/></g><g opacity="1"><polygon points="529,623 507.3,634.3 507.3,646.3 529,635" fill="#aeb9c0"/><polygon points="484.2,622.4 507.3,634.3 507.3,646.3 484.2,634.4" fill="#c1cbd1"/><polygon points="505.9,611.1 529,623 507.3,634.3 484.2,622.4" fill="#dfe6ea"/></g>
<g opacity="1"><polygon points="425.8,573.3 399.3,586.9 399.3,596.5 425.8,582.9" fill="#252e35"/><polygon points="349.8,561.4 399.3,586.9 399.3,596.5 349.8,571" fill="#252e35"/><polygon points="376.3,547.8 425.8,573.3 399.3,586.9 349.8,561.4" fill="#3a4650"/></g><g opacity="1"><polygon points="410.2,561.7 391.8,571.2 391.8,578.9 410.2,569.3" fill="#95b1bd"/><polygon points="362.1,555.9 391.8,571.2 391.8,578.9 362.1,563.6" fill="#a9c2cd"/><polygon points="380.5,546.4 410.2,561.7 391.8,571.2 362.1,555.9" fill="#cfe0e8"/></g>
<g opacity="1"><polygon points="331.7,526.5 305.3,540.1 305.3,549.7 331.7,536.1" fill="#cdd6db"/><polygon points="255.8,514.6 305.3,540.1 305.3,549.7 255.8,524.2" fill="#cdd6db"/><polygon points="282.2,501 331.7,526.5 305.3,540.1 255.8,514.6" fill="#f4f7f9"/></g><g opacity="1"><polygon points="316.2,514.9 297.7,524.4 297.7,532.1 316.2,522.6" fill="#95b1bd"/><polygon points="268,509.1 297.7,524.4 297.7,532.1 268,516.8" fill="#a9c2cd"/><polygon points="286.5,499.6 316.2,514.9 297.7,524.4 268,509.1" fill="#cfe0e8"/></g>
<g><rect x="362.7" y="274.7" width="4" height="20" fill="#8a6a4a"/><ellipse cx="364.7" cy="268.7" rx="15" ry="17" fill="#3f9d54"/><ellipse cx="359.7" cy="264.7" rx="9" ry="10" fill="#57b56a"/></g><g><rect x="471.6" y="249.2" width="4" height="20" fill="#8a6a4a"/><ellipse cx="473.6" cy="243.2" rx="15" ry="17" fill="#3f9d54"/><ellipse cx="468.6" cy="239.2" rx="9" ry="10" fill="#57b56a"/></g>
<g font-family="Inter, Segoe UI, Arial, sans-serif" font-weight="700" font-size="17"><g filter="url(#lbl)"><rect x="245.2" y="158" width="109.7" height="34" rx="17" fill="#ffffff"/><text x="300" y="180" text-anchor="middle" fill="#0c7d68">Inventory</text></g><g filter="url(#lbl)"><rect x="539.3" y="133" width="193.4" height="34" rx="17" fill="#ffffff"/><text x="636" y="155" text-anchor="middle" fill="#0c7d68">Production Control</text></g><g filter="url(#lbl)"><rect x="755.3" y="245" width="165.5" height="34" rx="17" fill="#ffffff"/><text x="838" y="267" text-anchor="middle" fill="#0c7d68">Crop Management</text></g><g filter="url(#lbl)"><rect x="159.2" y="245" width="109.7" height="34" rx="17" fill="#ffffff"/><text x="214" y="267" text-anchor="middle" fill="#0c7d68">Logistics</text></g><g filter="url(#lbl)"><rect x="441.3" y="251" width="165.5" height="34" rx="17" fill="#ffffff"/><text x="524" y="273" text-anchor="middle" fill="#0c7d68">AI &amp; Automation</text></g><g filter="url(#lbl)"><rect x="217.2" y="413" width="137.6" height="34" rx="17" fill="#ffffff"/><text x="286" y="435" text-anchor="middle" fill="#0c7d68">Finance &amp; HR</text></g><g filter="url(#lbl)"><rect x="473.9" y="375" width="184.1" height="34" rx="17" fill="#ffffff"/><text x="566" y="397" text-anchor="middle" fill="#0c7d68">Mobile Operations</text></g><g filter="url(#lbl)"><rect x="111.9" y="511" width="156.2" height="34" rx="17" fill="#ffffff"/><text x="190" y="533" text-anchor="middle" fill="#0c7d68">Sales &amp; Orders</text></g><g filter="url(#lbl)"><rect x="397.1" y="511" width="109.7" height="34" rx="17" fill="#ffffff"/><text x="452" y="533" text-anchor="middle" fill="#0c7d68">EDI &amp; API</text></g></g>
</svg>
