<svg xmlns="http://www.w3.org/2000/svg" viewBox="0 0 760 480" width="760" height="480" font-family="system-ui, -apple-system, Segoe UI, Roboto, sans-serif" role="img" aria-label="Fitoware · Zona protegida (PZ)">
  <defs><filter id="fsh2" x="-5%" y="-5%" width="110%" height="115%"><feDropShadow dx="0" dy="8" stdDeviation="14" flood-color="#0e6354" flood-opacity="0.18"/></filter></defs>
  <rect width="760" height="480" fill="#ecfdf5"/>
  <rect x="40" y="28" width="680" height="424" rx="16" fill="#ffffff" stroke="#d8e0e6" filter="url(#fsh2)"/>
  <path d="M40 44 a16 16 0 0 1 16 -16 h648 a16 16 0 0 1 16 16 v26 h-680 z" fill="#0d9e80"/>
  <circle cx="64" cy="44" r="5" fill="#ffffff" opacity="0.85"/>
  <circle cx="82" cy="44" r="5" fill="#ffffff" opacity="0.6"/>
  <circle cx="100" cy="44" r="5" fill="#ffffff" opacity="0.45"/>
  <text x="380" y="49" text-anchor="middle" fill="#ffffff" font-size="14" font-weight="600">Fitoware · Zona protegida (PZ)</text><text x="60" y="98" fill="#0f172a" font-size="14" font-weight="700">Fitxa d'espècie</text><text x="688" y="98" text-anchor="end" fill="#64748b" font-size="11.5">Buxus sempervirens</text><text x="60" y="128" fill="#64748b" font-size="11">Espècie</text><rect x="60" y="134" width="360" height="30" rx="8" fill="#ffffff" stroke="#cbd5e1"/><text x="74" y="154" fill="#0f172a" font-size="12" font-weight="600" font-style="italic">Buxus sempervirens</text><text x="60" y="180" fill="#64748b" font-size="11">Família</text><rect x="60" y="186" width="360" height="30" rx="8" fill="#ffffff" stroke="#cbd5e1"/><text x="74" y="206" fill="#0f172a" font-size="12" font-weight="600" font-style="normal">Buxaceae</text><text x="60" y="232" fill="#64748b" font-size="11">Organisme de quarantena</text><rect x="60" y="238" width="360" height="30" rx="8" fill="#ffffff" stroke="#cbd5e1"/><text x="74" y="258" fill="#0f172a" font-size="12" font-weight="600" font-style="normal">Cydalima perspectalis</text><text x="60" y="284" fill="#64748b" font-size="11">Zona protegida (PZ)</text><rect x="60" y="290" width="72" height="30" rx="15" fill="#dc2626"/><circle cx="115" cy="305" r="11" fill="#ffffff"/><text x="80" y="309" fill="#ffffff" font-size="11" font-weight="700">Sí</text><rect x="452" y="120" width="248" height="230" rx="12" fill="#ffffff" stroke="#e2e8f0" filter="url(#fsh2)"/><path d="M452 132 a12 12 0 0 1 12 -12 h224 a12 12 0 0 1 12 12 v22 h-248 z" fill="#0d9e80"/><text x="466" y="139" fill="#ffffff" font-size="10.5" font-weight="700">PASSAPORT FITOSANITARI UE</text><rect x="640" y="126" width="44" height="20" rx="6" fill="#dc2626"/><text x="662" y="140" text-anchor="middle" fill="#ffffff" font-size="11" font-weight="800">PZ</text><text x="470" y="180" fill="#0c2a47" font-size="11.5"><tspan font-weight="800">A ·</tspan> Buxus sempervirens</text><text x="470" y="202" fill="#0c2a47" font-size="11.5"><tspan font-weight="800">B ·</tspan> ES-08 09</text><text x="470" y="224" fill="#0c2a47" font-size="11.5"><tspan font-weight="800">C ·</tspan> L-2026-0345</text><text x="470" y="246" fill="#0c2a47" font-size="11.5"><tspan font-weight="800">D ·</tspan> ES</text><rect x="470" y="284" width="210" height="1.4" fill="#eef2f6"/><rect x="470" y="298" width="196" height="20" rx="6" fill="#fee2e2"/><text x="480" y="312" fill="#b91c1c" font-size="10" font-weight="700">Organisme: Cydalima perspectalis</text><circle cx="70" cy="424" r="3" fill="#0d9e80"/><text x="84" y="428" fill="#64748b" font-size="11">L'indicador PZ i l'organisme apareixen al passaport de les espècies que ho requereixen.</text></svg>
